<svg width="15" height="15" viewBox="0 0 15 15" fill="none" xmlns="http://www.w3.org/2000/svg">
<path fill-rule="evenodd" clip-rule="evenodd" d="M7.49738 0.375C5.72799 0.375918 4.01662 1.0026 2.66928 2.14299C1.32194 3.28338 0.426489 4.86312 0.143042 6.59972C-0.140405 8.33632 0.206632 10.1166 1.12211 11.6221C2.03758 13.1276 3.46179 14.2603 5.14008 14.8176C5.51033 14.8863 5.6498 14.6568 5.6498 14.4617C5.6498 14.2666 5.64239 13.7008 5.63992 13.0823C3.56648 13.5303 3.12835 12.2074 3.12835 12.2074C2.79018 11.3483 2.30144 11.1225 2.30144 11.1225C1.62511 10.6636 2.35205 10.6722 2.35205 10.6722C3.1012 10.7249 3.49491 11.4367 3.49491 11.4367C4.1589 12.5694 5.23881 12.2417 5.66337 12.0503C5.73002 11.5705 5.92379 11.244 6.1373 11.0587C4.48102 10.8722 2.74081 10.2365 2.74081 7.39686C2.73055 6.66041 3.00539 5.94821 3.50848 5.40762C3.43196 5.22109 3.17648 4.46761 3.58129 3.44415C3.58129 3.44415 4.20703 3.24535 5.63129 4.20377C6.85292 3.87159 8.14184 3.87159 9.36347 4.20377C10.7865 3.24535 11.411 3.44415 11.411 3.44415C11.817 4.46516 11.5616 5.21864 11.485 5.40762C11.9897 5.9483 12.2651 6.66174 12.2539 7.39932C12.2539 10.2451 10.51 10.8722 8.85128 11.0551C9.11787 11.2858 9.35607 11.7361 9.35607 12.4283C9.35607 13.4198 9.34743 14.2175 9.34743 14.4617C9.34743 14.6592 9.48195 14.89 9.85961 14.8176C11.5381 14.2602 12.9624 13.1274 13.8779 11.6216C14.7934 10.1158 15.1402 8.33528 14.8565 6.59851C14.5727 4.86175 13.6768 3.28199 12.329 2.1418C10.9812 1.00161 9.26944 0.375336 7.49984 0.375H7.49738Z" fill="#555E64"/>
<path d="M2.86647 11.0158C2.85043 11.0526 2.79119 11.0637 2.74305 11.0379C2.69492 11.0121 2.65913 10.9643 2.67641 10.9262C2.69369 10.8882 2.7517 10.8784 2.79983 10.9041C2.84796 10.9299 2.88499 10.979 2.86647 11.0158Z" fill="#555E64"/>
<path d="M3.16892 11.3508C3.14336 11.3636 3.11412 11.3672 3.0862 11.3609C3.05828 11.3546 3.03343 11.3389 3.01588 11.3164C2.96775 11.2649 2.95787 11.1937 2.9949 11.1618C3.03192 11.1299 3.09857 11.1446 3.14671 11.1962C3.19484 11.2477 3.20595 11.3189 3.16892 11.3508Z" fill="#555E64"/>
<path d="M3.46269 11.7766C3.41703 11.8085 3.33927 11.7766 3.29607 11.7128C3.28413 11.7013 3.27463 11.6876 3.26814 11.6724C3.26165 11.6572 3.2583 11.6409 3.2583 11.6244C3.2583 11.6079 3.26165 11.5916 3.26814 11.5764C3.27463 11.5612 3.28413 11.5475 3.29607 11.5361C3.34174 11.5054 3.41949 11.5361 3.46269 11.5986C3.50589 11.6612 3.50712 11.7447 3.46269 11.7766V11.7766Z" fill="#555E64"/>
<path d="M3.86126 12.189C3.82053 12.2344 3.73784 12.2221 3.66996 12.1608C3.60208 12.0994 3.58603 12.016 3.62676 11.9718C3.66749 11.9276 3.75018 11.9399 3.82053 12C3.89088 12.0601 3.90445 12.1448 3.86126 12.189V12.189Z" fill="#555E64"/>
<path d="M4.42033 12.4295C4.40182 12.4872 4.31789 12.513 4.23397 12.4884C4.15004 12.4639 4.0945 12.3952 4.11055 12.3362C4.12659 12.2773 4.21175 12.2503 4.29691 12.2773C4.38207 12.3043 4.43638 12.3694 4.42033 12.4295Z" fill="#555E64"/>
<path d="M5.0301 12.4712C5.0301 12.5313 4.96099 12.5828 4.87213 12.5841C4.78327 12.5853 4.71045 12.5362 4.71045 12.4761C4.71045 12.4159 4.77956 12.3644 4.86842 12.3632C4.95728 12.362 5.0301 12.4098 5.0301 12.4712Z" fill="#555E64"/>
<path d="M5.59774 12.3767C5.60884 12.4368 5.54713 12.4994 5.45827 12.5142C5.36941 12.5289 5.29166 12.4933 5.28055 12.4344C5.26944 12.3755 5.33362 12.3117 5.42001 12.2957C5.50641 12.2798 5.58663 12.3166 5.59774 12.3767Z" fill="#555E64"/>
</svg>
